<?xml version="1.0" encoding="UTF-8" standalone="no"?>
<svg xmlns="http://www.w3.org/2000/svg" width="2048" height="2048" viewBox="0 0 1080 1080" version="1.1">
  <path d="M 212.0 76.0 L 202.0 85.0 L 200.0 89.0 L 200.0 104.0 L 206.0 117.0 L 226.0 142.0 L 240.0 166.0 L 246.0 186.0 L 246.0 210.0 L 241.0 227.0 L 233.0 242.0 L 185.0 298.0 L 169.0 324.0 L 154.0 358.0 L 143.0 396.0 L 137.0 430.0 L 134.0 459.0 L 133.0 506.0 L 136.0 556.0 L 142.0 603.0 L 151.0 652.0 L 169.0 726.0 L 188.0 787.0 L 206.0 834.0 L 219.0 863.0 L 243.0 908.0 L 274.0 953.0 L 305.0 986.0 L 326.0 1002.0 L 334.0 1005.0 L 342.0 1005.0 L 354.0 1018.0 L 366.0 1023.0 L 567.0 1013.0 L 688.0 1011.0 L 747.0 1012.0 L 757.0 1011.0 L 769.0 1007.0 L 785.0 993.0 L 827.0 932.0 L 855.0 883.0 L 884.0 822.0 L 904.0 771.0 L 922.0 714.0 L 935.0 661.0 L 946.0 597.0 L 953.0 512.0 L 952.0 439.0 L 946.0 386.0 L 939.0 362.0 L 929.0 342.0 L 915.0 322.0 L 888.0 290.0 L 868.0 259.0 L 851.0 218.0 L 843.0 182.0 L 844.0 168.0 L 851.0 154.0 L 877.0 130.0 L 888.0 117.0 L 894.0 101.0 L 893.0 90.0 L 888.0 86.0 L 848.0 79.0 L 840.0 73.0 L 827.0 68.0 L 802.0 64.0 L 473.0 64.0 L 257.0 61.0 L 239.0 63.0 L 233.0 65.0 L 226.0 71.0 Z M 370.0 1006.0 L 378.0 1005.0 L 379.0 1008.0 L 371.0 1009.0 Z M 873.0 294.0 L 918.0 352.0 L 928.0 375.0 L 934.0 402.0 L 938.0 450.0 L 938.0 523.0 L 933.0 583.0 L 925.0 636.0 L 914.0 687.0 L 896.0 749.0 L 873.0 810.0 L 847.0 866.0 L 818.0 918.0 L 775.0 982.0 L 760.0 995.0 L 744.0 997.0 L 743.0 994.0 L 776.0 963.0 L 795.0 939.0 L 817.0 905.0 L 840.0 861.0 L 861.0 811.0 L 879.0 758.0 L 896.0 696.0 L 908.0 641.0 L 918.0 578.0 L 922.0 535.0 L 923.0 478.0 L 920.0 437.0 L 915.0 405.0 L 907.0 373.0 L 894.0 338.0 L 880.0 311.0 L 870.0 297.0 L 870.0 295.0 Z M 854.0 95.0 L 877.0 99.0 L 878.0 104.0 L 869.0 117.0 L 856.0 128.0 L 835.0 151.0 L 829.0 168.0 L 829.0 187.0 L 834.0 212.0 L 842.0 237.0 L 855.0 266.0 L 871.0 291.0 L 870.0 294.0 L 867.0 293.0 L 867.0 291.0 L 822.0 241.0 L 813.0 225.0 L 807.0 204.0 L 807.0 186.0 L 814.0 162.0 L 826.0 141.0 L 847.0 114.0 Z" fill="#CE467E" fill-rule="evenodd"/>
  <path d="M 233.0 65.0 L 227.0 70.0 L 222.0 78.0 L 220.0 85.0 L 220.0 99.0 L 227.0 116.0 L 245.0 134.0 L 256.0 151.0 L 261.0 174.0 L 259.0 195.0 L 255.0 209.0 L 247.0 227.0 L 233.0 249.0 L 193.0 302.0 L 182.0 320.0 L 164.0 359.0 L 156.0 383.0 L 148.0 420.0 L 145.0 449.0 L 145.0 484.0 L 148.0 517.0 L 156.0 564.0 L 184.0 679.0 L 200.0 754.0 L 217.0 809.0 L 239.0 855.0 L 261.0 890.0 L 338.0 997.0 L 345.0 1009.0 L 354.0 1018.0 L 362.0 1022.0 L 386.0 1023.0 L 469.0 1017.0 L 567.0 1013.0 L 688.0 1011.0 L 747.0 1012.0 L 757.0 1011.0 L 769.0 1007.0 L 785.0 993.0 L 827.0 932.0 L 855.0 883.0 L 884.0 822.0 L 904.0 771.0 L 922.0 714.0 L 935.0 661.0 L 946.0 597.0 L 953.0 512.0 L 952.0 439.0 L 946.0 386.0 L 939.0 362.0 L 929.0 342.0 L 915.0 322.0 L 888.0 290.0 L 868.0 259.0 L 851.0 218.0 L 843.0 182.0 L 844.0 168.0 L 851.0 154.0 L 877.0 130.0 L 888.0 117.0 L 894.0 101.0 L 893.0 90.0 L 888.0 86.0 L 847.0 78.0 L 796.0 72.0 L 735.0 68.0 L 329.0 61.0 L 257.0 61.0 L 244.0 62.0 Z M 240.0 78.0 L 253.0 75.0 L 322.0 75.0 L 720.0 81.0 L 777.0 84.0 L 817.0 88.0 L 851.0 93.0 L 878.0 100.0 L 876.0 108.0 L 869.0 117.0 L 856.0 128.0 L 835.0 151.0 L 829.0 168.0 L 829.0 187.0 L 836.0 219.0 L 846.0 247.0 L 855.0 266.0 L 871.0 292.0 L 904.0 332.0 L 918.0 352.0 L 926.0 369.0 L 931.0 386.0 L 935.0 410.0 L 938.0 450.0 L 938.0 523.0 L 931.0 599.0 L 920.0 661.0 L 909.0 706.0 L 896.0 749.0 L 873.0 810.0 L 847.0 866.0 L 818.0 918.0 L 778.0 978.0 L 762.0 994.0 L 752.0 997.0 L 738.0 998.0 L 676.0 997.0 L 564.0 999.0 L 408.0 1006.0 L 378.0 1009.0 L 367.0 1008.0 L 362.0 1006.0 L 355.0 998.0 L 276.0 887.0 L 250.0 846.0 L 230.0 804.0 L 214.0 753.0 L 193.0 656.0 L 170.0 564.0 L 163.0 526.0 L 159.0 489.0 L 159.0 446.0 L 161.0 426.0 L 167.0 395.0 L 177.0 364.0 L 201.0 316.0 L 215.0 295.0 L 245.0 256.0 L 257.0 237.0 L 267.0 216.0 L 273.0 195.0 L 274.0 165.0 L 268.0 143.0 L 261.0 131.0 L 238.0 107.0 L 234.0 98.0 L 234.0 86.0 Z" fill="#933561" fill-rule="evenodd"/>
</svg>
